<svg xmlns="http://www.w3.org/2000/svg" xmlns:xlink="http://www.w3.org/1999/xlink" width="500" zoomAndPan="magnify" viewBox="0 0 375 374.999991" height="500" preserveAspectRatio="xMidYMid meet" version="1.0"><defs><g/><clipPath id="7b1cc7ef60"><path d="M 0 72.792969 L 217.5 72.792969 L 217.5 222.792969 L 0 222.792969 Z M 0 72.792969 " clip-rule="nonzero"/></clipPath><clipPath id="c3b15d7771"><rect x="0" width="341" y="0" height="97"/></clipPath></defs><g clip-path="url(#7b1cc7ef60)"><path fill="#ff9202" d="M 469.570312 214.628906 C 471.90625 214.628906 473.800781 216.523438 473.800781 218.859375 C 473.800781 221.195312 471.90625 223.089844 469.570312 223.089844 L 35.089844 223.089844 C 30.910156 223.089844 27.105469 221.378906 24.351562 218.628906 C 21.601562 215.875 19.890625 212.070312 19.890625 207.886719 L 19.890625 154.4375 L 12.351562 154.4375 C 9.40625 154.4375 6.980469 153.664062 5.089844 152.386719 C 2.996094 150.96875 1.605469 148.964844 0.910156 146.691406 L 0.902344 146.691406 C 0.257812 144.582031 0.238281 142.253906 0.816406 139.996094 C 1.507812 137.300781 3.0625 134.675781 5.421875 132.640625 L 70.203125 76.796875 C 73.304688 74.128906 77.324219 72.792969 81.300781 72.792969 C 85.277344 72.792969 89.300781 74.128906 92.398438 76.796875 L 135.933594 114.453125 C 137.695312 115.976562 137.886719 118.640625 136.363281 120.402344 C 134.839844 122.164062 132.175781 122.355469 130.414062 120.832031 L 86.878906 83.179688 C 85.390625 81.898438 83.367188 81.253906 81.300781 81.253906 C 79.238281 81.253906 77.210938 81.898438 75.722656 83.179688 L 10.941406 139.019531 C 9.925781 139.898438 9.261719 140.988281 8.984375 142.078125 C 8.789062 142.839844 8.78125 143.585938 8.972656 144.210938 L 8.964844 144.214844 L 8.972656 144.230469 C 9.109375 144.683594 9.394531 145.089844 9.816406 145.375 C 10.367188 145.75 11.203125 145.972656 12.351562 145.972656 L 24.121094 145.972656 C 26.457031 145.972656 28.351562 147.867188 28.351562 150.207031 L 28.351562 207.886719 C 28.351562 209.734375 29.113281 211.421875 30.335938 212.644531 C 31.554688 213.867188 33.242188 214.628906 35.089844 214.628906 Z M 469.570312 214.628906 " fill-opacity="1" fill-rule="nonzero"/></g><g transform="matrix(1, 0, 0, 1, 31, 122)"><g clip-path="url(#c3b15d7771)"><g fill="#007a3f" fill-opacity="1"><g transform="translate(0.500002, 75.127132)"><g><path d="M 16.578125 -50.625 L 16.578125 -8.375 L 39.328125 -8.375 L 39.328125 0 L 6.578125 0 L 6.578125 -50.625 Z M 16.578125 -50.625 "/></g></g></g><g fill="#007a3f" fill-opacity="1"><g transform="translate(38.155335, 75.127132)"><g><path d="M 22.1875 0.734375 C 18.445312 0.734375 15.164062 -0.03125 12.34375 -1.5625 C 9.519531 -3.101562 7.328125 -5.359375 5.765625 -8.328125 C 4.203125 -11.296875 3.421875 -14.878906 3.421875 -19.078125 C 3.421875 -23.273438 4.203125 -26.863281 5.765625 -29.84375 C 7.328125 -32.820312 9.519531 -35.078125 12.34375 -36.609375 C 15.164062 -38.148438 18.445312 -38.921875 22.1875 -38.921875 C 25.925781 -38.921875 29.207031 -38.148438 32.03125 -36.609375 C 34.863281 -35.078125 37.066406 -32.820312 38.640625 -29.84375 C 40.210938 -26.863281 41 -23.273438 41 -19.078125 C 41 -14.878906 40.210938 -11.296875 38.640625 -8.328125 C 37.066406 -5.359375 34.863281 -3.101562 32.03125 -1.5625 C 29.207031 -0.03125 25.925781 0.734375 22.1875 0.734375 Z M 22.1875 -7.40625 C 28.125 -7.40625 31.09375 -11.296875 31.09375 -19.078125 C 31.09375 -23.117188 30.328125 -26.078125 28.796875 -27.953125 C 27.273438 -29.835938 25.070312 -30.78125 22.1875 -30.78125 C 16.257812 -30.78125 13.296875 -26.878906 13.296875 -19.078125 C 13.296875 -11.296875 16.257812 -7.40625 22.1875 -7.40625 Z M 22.1875 -7.40625 "/></g></g></g><g fill="#007a3f" fill-opacity="1"><g transform="translate(79.203282, 75.127132)"><g><path d="M 19.796875 16.203125 C 13.503906 16.203125 8.851562 15.273438 5.84375 13.421875 C 2.84375 11.578125 1.34375 9.007812 1.34375 5.71875 C 1.34375 3.707031 1.984375 2.0625 3.265625 0.78125 C 4.546875 -0.5 6.390625 -1.359375 8.796875 -1.796875 L 8.796875 -2.53125 C 7.503906 -3.3125 6.570312 -4.179688 6 -5.140625 C 5.4375 -6.097656 5.15625 -7.210938 5.15625 -8.484375 C 5.15625 -11.554688 7.148438 -13.625 11.140625 -14.6875 L 11.140625 -15.40625 C 9.085938 -16.582031 7.539062 -18.039062 6.5 -19.78125 C 5.46875 -21.53125 4.953125 -23.640625 4.953125 -26.109375 C 4.953125 -28.640625 5.535156 -30.867188 6.703125 -32.796875 C 7.867188 -34.734375 9.578125 -36.238281 11.828125 -37.3125 C 14.078125 -38.382812 16.769531 -38.921875 19.90625 -38.921875 C 23.09375 -38.921875 25.632812 -38.363281 27.53125 -37.25 C 28.707031 -38.957031 29.382812 -40.929688 29.5625 -43.171875 L 30.296875 -43.625 L 37.1875 -41.921875 C 36.976562 -40.097656 36.445312 -38.566406 35.59375 -37.328125 C 34.738281 -36.097656 33.410156 -35 31.609375 -34.03125 L 31.609375 -33.265625 C 33.753906 -31.378906 34.828125 -28.738281 34.828125 -25.34375 C 34.828125 -22.988281 34.238281 -20.875 33.0625 -19 C 31.882812 -17.132812 30.171875 -15.660156 27.921875 -14.578125 C 25.671875 -13.492188 23 -12.953125 19.90625 -12.953125 L 18.453125 -12.984375 C 17.523438 -13.023438 16.878906 -13.046875 16.515625 -13.046875 C 15.640625 -13.046875 14.953125 -12.8125 14.453125 -12.34375 C 13.953125 -11.875 13.703125 -11.269531 13.703125 -10.53125 C 13.703125 -9.71875 14.023438 -9.085938 14.671875 -8.640625 C 15.328125 -8.191406 16.273438 -7.941406 17.515625 -7.890625 L 26.078125 -7.578125 C 34.523438 -7.328125 38.75 -3.691406 38.75 3.328125 C 38.75 5.796875 38.117188 7.992188 36.859375 9.921875 C 35.597656 11.847656 33.554688 13.375 30.734375 14.5 C 27.921875 15.632812 24.273438 16.203125 19.796875 16.203125 Z M 19.90625 -19.671875 C 21.75 -19.671875 23.191406 -20.210938 24.234375 -21.296875 C 25.273438 -22.378906 25.796875 -23.925781 25.796875 -25.9375 C 25.796875 -27.9375 25.273438 -29.472656 24.234375 -30.546875 C 23.191406 -31.617188 21.75 -32.15625 19.90625 -32.15625 C 18.039062 -32.15625 16.597656 -31.617188 15.578125 -30.546875 C 14.566406 -29.472656 14.0625 -27.9375 14.0625 -25.9375 C 14.0625 -23.90625 14.566406 -22.351562 15.578125 -21.28125 C 16.597656 -20.207031 18.039062 -19.671875 19.90625 -19.671875 Z M 19.796875 9.25 C 23.078125 9.25 25.460938 8.785156 26.953125 7.859375 C 28.441406 6.929688 29.1875 5.734375 29.1875 4.265625 C 29.1875 3.054688 28.804688 2.171875 28.046875 1.609375 C 27.285156 1.046875 26.070312 0.738281 24.40625 0.6875 L 16.859375 0.34375 C 16.609375 0.34375 16.375 0.332031 16.15625 0.3125 C 15.9375 0.289062 15.722656 0.28125 15.515625 0.28125 C 13.898438 0.28125 12.671875 0.625 11.828125 1.3125 C 10.984375 2.007812 10.5625 2.96875 10.5625 4.1875 C 10.5625 5.800781 11.332031 7.046875 12.875 7.921875 C 14.425781 8.804688 16.734375 9.25 19.796875 9.25 Z M 19.796875 9.25 "/></g></g></g><g fill="#007a3f" fill-opacity="1"><g transform="translate(115.57773, 75.127132)"><g><path d="M 37.734375 -16.9375 L 13.1875 -16.9375 C 13.46875 -13.601562 14.414062 -11.179688 16.03125 -9.671875 C 17.644531 -8.160156 19.847656 -7.40625 22.640625 -7.40625 C 24.835938 -7.40625 26.613281 -7.816406 27.96875 -8.640625 C 29.332031 -9.460938 30.429688 -10.703125 31.265625 -12.359375 L 31.984375 -12.359375 L 38.359375 -8.28125 C 37.109375 -5.601562 35.222656 -3.429688 32.703125 -1.765625 C 30.191406 -0.0976562 26.835938 0.734375 22.640625 0.734375 C 18.691406 0.734375 15.28125 -0.015625 12.40625 -1.515625 C 9.539062 -3.023438 7.328125 -5.257812 5.765625 -8.21875 C 4.203125 -11.1875 3.421875 -14.804688 3.421875 -19.078125 C 3.421875 -23.410156 4.238281 -27.066406 5.875 -30.046875 C 7.519531 -33.023438 9.738281 -35.25 12.53125 -36.71875 C 15.320312 -38.1875 18.460938 -38.921875 21.953125 -38.921875 C 27.347656 -38.921875 31.484375 -37.488281 34.359375 -34.625 C 37.234375 -31.757812 38.671875 -27.554688 38.671875 -22.015625 C 38.671875 -20.003906 38.601562 -18.445312 38.46875 -17.34375 Z M 29.5 -23.125 C 29.40625 -26.03125 28.726562 -28.144531 27.46875 -29.46875 C 26.207031 -30.800781 24.367188 -31.46875 21.953125 -31.46875 C 17.109375 -31.46875 14.257812 -28.6875 13.40625 -23.125 Z M 29.5 -23.125 "/></g></g></g><g fill="#007a3f" fill-opacity="1"><g transform="translate(153.75234, 75.127132)"><g><path d="M 38.671875 -50.625 L 38.671875 -42.234375 L 16.578125 -42.234375 L 16.578125 -28.84375 L 36.625 -28.84375 L 36.625 -20.5625 L 16.578125 -20.5625 L 16.578125 0 L 6.578125 0 L 6.578125 -50.625 Z M 38.671875 -50.625 "/></g></g></g><g fill="#007a3f" fill-opacity="1"><g transform="translate(191.338436, 75.127132)"><g><path d="M 14.890625 0.734375 C 12.441406 0.734375 10.316406 0.285156 8.515625 -0.609375 C 6.710938 -1.515625 5.328125 -2.835938 4.359375 -4.578125 C 3.390625 -6.328125 2.90625 -8.425781 2.90625 -10.875 C 2.90625 -13.132812 3.390625 -15.03125 4.359375 -16.5625 C 5.328125 -18.101562 6.828125 -19.363281 8.859375 -20.34375 C 10.890625 -21.320312 13.546875 -22.078125 16.828125 -22.609375 C 19.109375 -22.972656 20.84375 -23.375 22.03125 -23.8125 C 23.21875 -24.257812 24.019531 -24.757812 24.4375 -25.3125 C 24.851562 -25.863281 25.0625 -26.566406 25.0625 -27.421875 C 25.0625 -28.640625 24.632812 -29.570312 23.78125 -30.21875 C 22.925781 -30.863281 21.507812 -31.1875 19.53125 -31.1875 C 17.40625 -31.1875 15.382812 -30.710938 13.46875 -29.765625 C 11.550781 -28.828125 9.890625 -27.582031 8.484375 -26.03125 L 7.796875 -26.03125 L 3.78125 -32.09375 C 5.71875 -34.238281 8.082031 -35.910156 10.875 -37.109375 C 13.664062 -38.316406 16.710938 -38.921875 20.015625 -38.921875 C 25.066406 -38.921875 28.722656 -37.84375 30.984375 -35.6875 C 33.242188 -33.539062 34.375 -30.5 34.375 -26.5625 L 34.375 -9.96875 C 34.375 -8.257812 35.125 -7.40625 36.625 -7.40625 C 37.207031 -7.40625 37.773438 -7.507812 38.328125 -7.71875 L 38.8125 -7.578125 L 39.5 -0.90625 C 38.96875 -0.550781 38.226562 -0.265625 37.28125 -0.046875 C 36.34375 0.171875 35.304688 0.28125 34.171875 0.28125 C 31.890625 0.28125 30.109375 -0.15625 28.828125 -1.03125 C 27.546875 -1.914062 26.628906 -3.289062 26.078125 -5.15625 L 25.34375 -5.234375 C 23.46875 -1.253906 19.984375 0.734375 14.890625 0.734375 Z M 17.9375 -6.4375 C 20.15625 -6.4375 21.925781 -7.179688 23.25 -8.671875 C 24.570312 -10.160156 25.234375 -12.234375 25.234375 -14.890625 L 25.234375 -18.765625 L 24.578125 -18.90625 C 24.003906 -18.445312 23.25 -18.0625 22.3125 -17.75 C 21.375 -17.4375 20.03125 -17.128906 18.28125 -16.828125 C 16.207031 -16.484375 14.710938 -15.890625 13.796875 -15.046875 C 12.878906 -14.203125 12.421875 -13.003906 12.421875 -11.453125 C 12.421875 -9.816406 12.90625 -8.570312 13.875 -7.71875 C 14.851562 -6.863281 16.207031 -6.4375 17.9375 -6.4375 Z M 17.9375 -6.4375 "/></g></g></g><g fill="#007a3f" fill-opacity="1"><g transform="translate(228.266779, 75.127132)"><g><path d="M 22.265625 0.734375 C 18.566406 0.734375 15.296875 -0.03125 12.453125 -1.5625 C 9.617188 -3.101562 7.40625 -5.363281 5.8125 -8.34375 C 4.21875 -11.320312 3.421875 -14.898438 3.421875 -19.078125 C 3.421875 -23.273438 4.21875 -26.863281 5.8125 -29.84375 C 7.40625 -32.820312 9.609375 -35.078125 12.421875 -36.609375 C 15.242188 -38.148438 18.46875 -38.921875 22.09375 -38.921875 C 30.144531 -38.921875 35.300781 -36 37.5625 -30.15625 L 30.984375 -25.453125 L 30.265625 -25.453125 C 29.472656 -27.242188 28.445312 -28.578125 27.1875 -29.453125 C 25.9375 -30.335938 24.238281 -30.78125 22.09375 -30.78125 C 19.320312 -30.78125 17.160156 -29.820312 15.609375 -27.90625 C 14.066406 -25.988281 13.296875 -23.046875 13.296875 -19.078125 C 13.296875 -15.148438 14.078125 -12.222656 15.640625 -10.296875 C 17.210938 -8.367188 19.421875 -7.40625 22.265625 -7.40625 C 24.335938 -7.40625 26.09375 -7.960938 27.53125 -9.078125 C 28.976562 -10.203125 30.015625 -11.816406 30.640625 -13.921875 L 31.375 -13.984375 L 38.1875 -10.25 C 37.21875 -7.019531 35.421875 -4.378906 32.796875 -2.328125 C 30.179688 -0.285156 26.671875 0.734375 22.265625 0.734375 Z M 22.265625 0.734375 "/></g></g></g><g fill="#007a3f" fill-opacity="1"><g transform="translate(264.295042, 75.127132)"><g><path d="M 10.28125 -42.765625 C 8.550781 -42.765625 7.144531 -43.285156 6.0625 -44.328125 C 4.976562 -45.378906 4.4375 -46.738281 4.4375 -48.40625 C 4.4375 -50.039062 4.976562 -51.382812 6.0625 -52.4375 C 7.144531 -53.488281 8.550781 -54.015625 10.28125 -54.015625 C 11.4375 -54.015625 12.460938 -53.769531 13.359375 -53.28125 C 14.265625 -52.800781 14.960938 -52.140625 15.453125 -51.296875 C 15.953125 -50.453125 16.203125 -49.488281 16.203125 -48.40625 C 16.203125 -47.320312 15.953125 -46.351562 15.453125 -45.5 C 14.960938 -44.644531 14.265625 -43.972656 13.359375 -43.484375 C 12.460938 -43.003906 11.4375 -42.765625 10.28125 -42.765625 Z M 5.5 0 L 5.5 -38.1875 L 15.09375 -38.1875 L 15.09375 0 Z M 5.5 0 "/></g></g></g><g fill="#007a3f" fill-opacity="1"><g transform="translate(281.52545, 75.127132)"><g><path d="M 15.859375 0.734375 C 12.421875 0.734375 9.796875 -0.191406 7.984375 -2.046875 C 6.171875 -3.910156 5.265625 -6.738281 5.265625 -10.53125 L 5.265625 -53.53125 L 14.859375 -53.53125 L 14.859375 -10.90625 C 14.859375 -8.570312 15.828125 -7.40625 17.765625 -7.40625 C 18.316406 -7.40625 18.90625 -7.5 19.53125 -7.6875 L 20.015625 -7.546875 L 20.875 -0.171875 C 20.34375 0.109375 19.640625 0.328125 18.765625 0.484375 C 17.890625 0.648438 16.921875 0.734375 15.859375 0.734375 Z M 15.859375 0.734375 "/></g></g></g><g fill="#007a3f" fill-opacity="1"><g transform="translate(300.140599, 75.127132)"><g><path d="M 37.734375 -16.9375 L 13.1875 -16.9375 C 13.46875 -13.601562 14.414062 -11.179688 16.03125 -9.671875 C 17.644531 -8.160156 19.847656 -7.40625 22.640625 -7.40625 C 24.835938 -7.40625 26.613281 -7.816406 27.96875 -8.640625 C 29.332031 -9.460938 30.429688 -10.703125 31.265625 -12.359375 L 31.984375 -12.359375 L 38.359375 -8.28125 C 37.109375 -5.601562 35.222656 -3.429688 32.703125 -1.765625 C 30.191406 -0.0976562 26.835938 0.734375 22.640625 0.734375 C 18.691406 0.734375 15.28125 -0.015625 12.40625 -1.515625 C 9.539062 -3.023438 7.328125 -5.257812 5.765625 -8.21875 C 4.203125 -11.1875 3.421875 -14.804688 3.421875 -19.078125 C 3.421875 -23.410156 4.238281 -27.066406 5.875 -30.046875 C 7.519531 -33.023438 9.738281 -35.25 12.53125 -36.71875 C 15.320312 -38.1875 18.460938 -38.921875 21.953125 -38.921875 C 27.347656 -38.921875 31.484375 -37.488281 34.359375 -34.625 C 37.234375 -31.757812 38.671875 -27.554688 38.671875 -22.015625 C 38.671875 -20.003906 38.601562 -18.445312 38.46875 -17.34375 Z M 29.5 -23.125 C 29.40625 -26.03125 28.726562 -28.144531 27.46875 -29.46875 C 26.207031 -30.800781 24.367188 -31.46875 21.953125 -31.46875 C 17.109375 -31.46875 14.257812 -28.6875 13.40625 -23.125 Z M 29.5 -23.125 "/></g></g></g></g></g></svg>